<svg xmlns="http://www.w3.org/2000/svg" width="80" height="80" viewBox="0 0 80 80">
  <defs>
    <linearGradient id="musicGradient" x1="0%" y1="0%" x2="100%" y2="100%">
      <stop offset="0%" style="stop-color:#ff00ff;stop-opacity:1" />
      <stop offset="50%" style="stop-color:#00ffff;stop-opacity:1" />
      <stop offset="100%" style="stop-color:#0088ff;stop-opacity:1" />
    </linearGradient>
  </defs>
  <rect width="80" height="80" fill="rgba(0,0,0,0)" stroke="#00ffff" stroke-width="2" rx="8"/>
  <!-- Waveform bars -->
  <rect x="15" y="50" width="3" height="20" fill="url(#musicGradient)"/>
  <rect x="20" y="40" width="3" height="30" fill="url(#musicGradient)"/>
  <rect x="25" y="30" width="3" height="40" fill="url(#musicGradient)"/>
  <rect x="30" y="20" width="3" height="50" fill="url(#musicGradient)"/>
  <rect x="35" y="15" width="3" height="55" fill="url(#musicGradient)"/>
  <rect x="40" y="25" width="3" height="45" fill="url(#musicGradient)"/>
  <rect x="45" y="35" width="3" height="35" fill="url(#musicGradient)"/>
  <rect x="50" y="45" width="3" height="25" fill="url(#musicGradient)"/>
  <rect x="55" y="40" width="3" height="30" fill="url(#musicGradient)"/>
  <rect x="60" y="30" width="3" height="40" fill="url(#musicGradient)"/>
  <rect x="65" y="50" width="3" height="20" fill="url(#musicGradient)"/>
  <!-- Musical note -->
  <circle cx="20" cy="25" r="4" fill="#00ffff"/>
  <rect x="24" y="15" width="2" height="20" fill="#00ffff"/>
  <path d="M26 15 Q35 12 35 20" fill="none" stroke="#00ffff" stroke-width="2"/>
</svg>
